<svg width="150" height="150" viewBox="0 0 150 150" fill="none" xmlns="http://www.w3.org/2000/svg">
<path d="M49.161 114L32.4 66.501H43.431L50.496 88.44C52.638 95.076 54.273 100.71 55.368 105.564H55.506C56.478 101.133 58.329 95.328 60.591 88.596L68.001 66.501H78.477L61.272 114H49.161Z" fill="black"/>
<path d="M126.771 115.98L116.106 108.669C120.855 104.097 123.273 97.374 123.273 90.087C123.273 75.546 114.468 65.811 100.572 65.811C85.818 65.811 77.199 76.425 77.199 90.249C77.199 103.854 85.002 114.687 99.906 114.687C102.708 114.687 105.258 114.306 107.562 113.613L120.834 122.808L126.771 115.98ZM87.807 90.042C87.807 80.793 91.551 74.169 100.131 74.169C108.984 74.169 112.665 81.231 112.665 90.216C112.665 98.682 109.431 106.329 100.296 106.329C91.875 106.332 87.807 99.315 87.807 90.042Z" fill="black"/>
<path d="M138.384 78.873L75 34.356L11.616 78.873L7.473 72.975L72.93 27.006H77.07L142.527 72.975L138.384 78.873Z" fill="black"/>
</svg>
